<svg xmlns="http://www.w3.org/2000/svg" viewBox="0 0 68.7 68.7" enable-background="new 0 0 68.7 68.7"><g fill="#4F260F" stroke="#4F260F" stroke-miterlimit="10"><path d="M45 32.2c.3 1.3.5 2.6.5 4.1v.5l1.6.6 1.3-1.1 1 1.2-2 1.7-2.1-.9c-.2 1.9-.8 3.7-1.6 5.2l.3-.4 1.6.9 1.5-.9.8 1.4-2.2 1.4-2.5-1.5c-1.9 3.1-4.9 5.1-8.2 5.1-3.3 0-6.3-2-8.2-5l-2.4 1.5-2.2-1.4.8-1.4 1.5.9 1.6-.9.1.2c-.7-1.5-1.2-3.1-1.5-4.9l-2 .8-2-1.7 1-1.2 1.3 1.1 1.5-.6v-.5c0-1.4.2-2.8.5-4.1l-2.6-.1-1.1-2.4 1.4-.7.8 1.6 1.8.1v.5c1.1-3.3 3.2-5.9 5.8-7.3.1-1 .9-1.8 1.9-1.8h4.4c1 0 1.9.9 1.9 1.9v.1c2.5 1.4 4.5 4 5.5 7.2v-.7l1.8-.1.8-1.6 1.4.7-1.1 2.4-2.7.1zM40.4 20.4l-.3.6-.3.1-.6.2-.6.4-.8.4v-.4l.9-.7.6-.2.6-.4.3-.7.7-.2-.2.6zM31.4 21.3l-.7-.2-.3-.1-.2-.6-.4-.3-.1-.6.6.2.3.7.6.4.6.2.9.7v.4l-.8-.4z"/></g></svg>